<?xml version="1.0" encoding="UTF-8" standalone="no"?>
<svg
   xmlns:dc="http://purl.org/dc/elements/1.1/"
   xmlns:cc="http://creativecommons.org/ns#"
   xmlns:rdf="http://www.w3.org/1999/02/22-rdf-syntax-ns#"
   xmlns:svg="http://www.w3.org/2000/svg"
   xmlns="http://www.w3.org/2000/svg"
   xmlns:sodipodi="http://sodipodi.sourceforge.net/DTD/sodipodi-0.dtd"
   xmlns:inkscape="http://www.inkscape.org/namespaces/inkscape"
   sodipodi:docname="logocolorida.svg"
   inkscape:version="1.0 (4035a4fb49, 2020-05-01)"
   id="svg8"
   version="1.1"
   viewBox="0 0 243.55028 97.995827"
   height="97.995827mm"
   width="243.55028mm">
  <defs
     id="defs2" />
  <sodipodi:namedview
     inkscape:window-maximized="1"
     inkscape:window-y="-9"
     inkscape:window-x="-9"
     inkscape:window-height="1001"
     inkscape:window-width="1920"
     inkscape:guide-bbox="true"
     showguides="true"
     showgrid="false"
     inkscape:document-rotation="0"
     inkscape:current-layer="text835"
     inkscape:document-units="mm"
     inkscape:cy="153.93911"
     inkscape:cx="475.73703"
     inkscape:zoom="1.979899"
     inkscape:pageshadow="2"
     inkscape:pageopacity="0.0"
     borderopacity="1.0"
     bordercolor="#666666"
     pagecolor="#ffffff"
     id="base" />
  <metadata
     id="metadata5">
    <rdf:RDF>
      <cc:Work
         rdf:about="">
        <dc:format>image/svg+xml</dc:format>
        <dc:type
           rdf:resource="http://purl.org/dc/dcmitype/StillImage" />
        <dc:title></dc:title>
      </cc:Work>
    </rdf:RDF>
  </metadata>
  <g
     transform="translate(-39.723566,-64.016962)"
     id="layer1"
     inkscape:groupmode="layer"
     inkscape:label="Layer 1">
    <g
       style="font-size:25.4px;line-height:1.25;font-family:Montserrat;-inkscape-font-specification:Montserrat;stroke-width:0.264583"
       id="text835"
       aria-label="lunch">
      <path
         d="M 137.67379,113.01488 A 48.952312,48.952312 0 0 1 88.721481,161.96719 48.952312,48.952312 0 0 1 39.769169,113.01488 48.952312,48.952312 0 0 1 88.721481,64.062565 48.952312,48.952312 0 0 1 137.67379,113.01488"
         style="opacity:1;fill:#96031a;fill-opacity:1;stroke:none;stroke-width:0.0912054"
         id="circle856" />
      <path
         d="M 133.89755,113.01488 A 45.176071,45.176071 0 0 1 88.721481,158.19095 45.176071,45.176071 0 0 1 43.54541,113.01488 45.176071,45.176071 0 0 1 88.721481,67.838806 45.176071,45.176071 0 0 1 133.89755,113.01488 Z"
         style="opacity:1;fill:#faa916;fill-opacity:1;stroke:none;stroke-width:0.0841697"
         id="path854" />
      <path
         id="path837"
         style="font-style:normal;font-variant:normal;font-weight:bold;font-stretch:normal;font-family:Montserrat;-inkscape-font-specification:'Montserrat Bold';fill:#96031a;fill-opacity:1;stroke-width:0.264583"
         d="m 53.611542,94.168078 h 3.962399 v 18.846802 h -3.962399 z" />
      <path
         id="path839"
         style="font-style:normal;font-variant:normal;font-weight:bold;font-stretch:normal;font-family:Montserrat;-inkscape-font-specification:'Montserrat Bold';fill:#96031a;fill-opacity:1;stroke-width:0.264583"
         d="m 75.018185,99.349678 v 13.665202 h -3.7592 v -1.6256 q -0.7874,0.889 -1.8796,1.3716 -1.0922,0.4572 -2.3622,0.4572 -2.6924,0 -4.2672,-1.5494 -1.5748,-1.5494 -1.5748,-4.5974 v -7.721602 h 3.9624 v 7.137402 q 0,3.302 2.7686,3.302 1.4224,0 2.286,-0.9144 0.8636,-0.9398 0.8636,-2.7686 v -6.756402 z" />
      <path
         id="path841"
         style="font-style:normal;font-variant:normal;font-weight:bold;font-stretch:normal;font-family:Montserrat;-inkscape-font-specification:'Montserrat Bold';fill:#96031a;fill-opacity:1;stroke-width:0.264583"
         d="m 87.019684,99.146478 q 2.54,0 4.0894,1.524002 1.5748,1.524 1.5748,4.5212 v 7.8232 h -3.9624 v -7.2136 q 0,-1.6256 -0.7112,-2.413 -0.7112,-0.8128 -2.0574,-0.8128 -1.4986,0 -2.3876,0.9398 -0.889,0.9144 -0.889,2.7432 v 6.7564 h -3.9624 V 99.349678 h 3.7846 v 1.600202 q 0.7874,-0.8636 1.9558,-1.320802 1.1684,-0.4826 2.5654,-0.4826 z" />
      <path
         id="path843"
         style="font-style:normal;font-variant:normal;font-weight:bold;font-stretch:normal;font-family:Montserrat;-inkscape-font-specification:'Montserrat Bold';fill:#96031a;fill-opacity:1;stroke-width:0.264583"
         d="m 103.02843,113.21808 q -2.1844,0 -3.936999,-0.889 -1.7272,-0.9144 -2.7178,-2.5146 -0.9652,-1.6002 -0.9652,-3.6322 0,-2.032 0.9652,-3.6322 0.9906,-1.6002 2.7178,-2.4892 1.752599,-0.914402 3.936999,-0.914402 2.159,0 3.7592,0.914402 1.6256,0.889 2.3622,2.5654 l -3.0734,1.651 q -1.0668,-1.8796 -3.0734,-1.8796 -1.5494,0 -2.5654,1.016 -1.015999,1.016 -1.015999,2.7686 0,1.7526 1.015999,2.7686 1.016,1.016 2.5654,1.016 2.032,0 3.0734,-1.8796 l 3.0734,1.6764 q -0.7366,1.6256 -2.3622,2.54 -1.6002,0.9144 -3.7592,0.9144 z" />
      <path
         sodipodi:nodetypes="scsccscscsccccccs"
         id="path845"
         style="font-style:normal;font-variant:normal;font-weight:bold;font-stretch:normal;font-family:Montserrat;-inkscape-font-specification:'Montserrat Bold';fill:#96031a;fill-opacity:1;stroke-width:0.264583"
         d="m 119.66265,99.146478 c 1.69333,0 3.05647,0.508001 4.0894,1.524002 1.04987,1.016 1.5748,2.52307 1.5748,4.5212 v 28.42291 h -3.9624 v -27.81331 c 0,-1.08373 -0.23707,-1.88807 -0.7112,-2.413 -0.47413,-0.54187 -1.15993,-0.8128 -2.0574,-0.8128 -0.99907,0 -1.79493,0.31327 -2.3876,0.9398 -0.59267,0.6096 -0.889,1.524 -0.889,2.7432 v 6.7564 h -3.9624 V 94.168078 h 3.9624 v 6.604002 c 0.52493,-0.52493 1.15993,-0.922869 1.905,-1.193802 0.74507,-0.287867 1.55787,-0.4318 2.4384,-0.4318 z" />
      <path
         id="path872"
         d="m 84.659802,94.068357 c -0.61853,-0.358665 -0.90771,-0.950972 -0.90771,-1.859174 v -0.748596 l -0.49091,-0.323282 c -0.71772,-0.472651 -2.00113,-1.739767 -2.57834,-2.545611 -1.10042,-1.536291 -1.82722,-3.541255 -1.97348,-5.444082 -0.10028,-1.30455 0.002,-1.420311 1.25206,-1.420311 h 0.9093 l -0.89412,-0.721919 c -1.06068,-0.856399 -1.39305,-1.31201 -1.48994,-2.042401 -0.069,-0.519882 -0.0855,-0.539855 -0.40747,-0.492599 -0.42748,0.06274 -0.67999,-0.146845 -0.67999,-0.564401 0,-0.324058 0.0687,-0.421635 0.51978,-0.737721 0.22395,-0.156941 0.21599,-0.177285 -0.25989,-0.664598 -0.54744,-0.560598 -0.61719,-0.912183 -0.23419,-1.180449 0.36129,-0.253055 0.46677,-0.231237 1.05582,0.218393 l 0.52167,0.398203 0.13397,-0.405922 c 0.16045,-0.486169 0.54614,-0.705811 0.90353,-0.514541 0.26292,0.140713 0.42886,0.593063 0.32082,0.874594 -0.0543,0.141393 0.051,0.173518 0.56879,0.173518 0.8161,0 1.29706,0.206835 1.99156,0.856453 l 0.55994,0.523763 0.64016,-0.620042 c 0.44247,-0.42856 0.66312,-0.742396 0.71449,-1.016236 0.12346,-0.6581 0.70356,-1.4404 1.39709,-1.884042 0.35092,-0.224482 0.63803,-0.459691 0.63803,-0.522687 0,-0.063 0.21202,-0.344545 0.47115,-0.625666 0.79904,-0.866855 2.01571,-1.142481 3.14291,-0.711998 0.82767,0.31609 1.69927,1.424437 1.69927,2.160836 0,0.13581 0.13243,0.40431 0.29429,0.596669 0.56423,0.670548 0.78652,1.25134 0.82036,2.143417 0.0245,0.645087 0.0883,0.914289 0.27205,1.147926 0.23208,0.295043 0.28129,0.30545 1.47694,0.312356 1.11221,0.0064 1.30309,0.03967 1.8941,0.329898 0.876796,0.430572 1.740946,1.383468 2.067966,2.280345 0.22253,0.610304 0.28688,0.688851 0.56431,0.688851 0.17223,0 0.40642,0.103066 0.520422,0.229035 0.17837,0.1971 0.19615,0.354132 0.12757,1.126193 -0.282572,3.180597 -1.848072,6.051395 -4.284028,7.85604 l -0.69305,0.513427 -0.0634,0.854402 c -0.0699,0.940923 -0.26003,1.304016 -0.91719,1.751274 -0.37969,0.258412 -0.4069,0.259876 -4.78292,0.257238 -4.26627,-0.0026 -4.41395,-0.01012 -4.82168,-0.246553 z m 8.91038,-1.054704 c 0.237,-0.119361 0.29508,-0.243306 0.32397,-0.691339 l 0.0352,-0.545905 h -4.45968 -4.45967 l 0.0352,0.545905 c 0.0544,0.843811 0.0172,0.836774 4.42447,0.836774 2.83418,0 3.88579,-0.0373 4.1005,-0.145435 z m 1.60557,-3.090638 c 2.08606,-1.571889 3.368916,-3.770171 3.754866,-6.434232 l 0.0711,-0.490905 h -9.543806 -9.5438 l 0.0788,0.548658 c 0.39452,2.74658 1.8945,5.156332 4.16189,6.686173 l 0.57599,0.38863 h 4.7591 4.7591 z M 83.809842,79.588928 c -1.20705,-1.172143 -2.31871,-2.165532 -2.47037,-2.207531 -0.81502,-0.225704 -1.7139,0.531636 -1.58547,1.335817 0.0772,0.483661 0.15665,0.564919 1.87743,1.92108 l 1.36986,1.079598 1.50159,0.0011 1.50159,0.0011 -2.19463,-2.131171 z m 7.29491,1.936236 c 0.24722,-0.729834 0.66394,-1.470703 1.08288,-1.925192 0.53661,-0.582163 0.54309,-0.513981 -0.12818,-1.349633 -0.21765,-0.270944 -0.22761,-0.346578 -0.10119,-0.76853 0.21196,-0.707462 0.0637,-1.219112 -0.53041,-1.830405 -0.45505,-0.468213 -0.51433,-0.589452 -0.51433,-1.051973 0,-0.453248 -0.0596,-0.582406 -0.44844,-0.971209 -0.3928,-0.392806 -0.51532,-0.448439 -0.98754,-0.448439 -0.75955,0 -1.17928,0.254349 -1.485,0.89988 -0.20449,0.431786 -0.37582,0.603506 -0.83085,0.832725 -0.69889,0.352063 -1.09946,0.907287 -1.09946,1.523923 0,0.466882 -0.11816,0.624772 -0.92556,1.236772 -0.20121,0.152511 -0.4225,0.401657 -0.49175,0.553657 -0.11504,0.252496 -0.0568,0.346512 0.67457,1.08862 0.96512,0.979301 1.89781,1.781056 1.89781,1.63138 0,-0.05997 -0.28588,-0.507463 -0.63529,-0.994437 -0.65606,-0.914351 -0.7669,-1.311087 -0.45378,-1.624208 0.38028,-0.380278 0.80297,-0.178808 1.32208,0.63015 0.40642,0.633345 0.54884,0.632337 0.59171,-0.0042 0.0218,-0.323363 -0.0818,-0.554744 -0.51423,-1.149076 -0.59975,-0.824223 -0.66868,-1.173318 -0.28479,-1.442206 0.34454,-0.241328 0.58936,-0.226415 0.8406,0.0512 0.30326,0.335093 0.36441,0.292786 0.44692,-0.309203 0.12182,-0.888804 0.69931,-1.250666 1.1685,-0.732207 0.18062,0.199573 0.19295,0.318902 0.0955,0.924056 -0.1196,0.742651 -0.10152,0.780735 0.24591,0.517955 0.12332,-0.09327 0.30115,-0.169587 0.39518,-0.169587 0.28738,0 0.59343,0.364308 0.59343,0.706397 0,0.269338 -0.14632,0.432278 -0.8663,0.964733 -0.49722,0.367707 -0.86698,0.72643 -0.86788,0.841972 -9.9e-4,0.110722 -0.0359,0.329629 -0.0778,0.486462 -0.0738,0.27616 -0.0581,0.272092 0.50023,-0.129012 0.87059,-0.625451 1.0265,-0.690838 1.3521,-0.567046 0.37344,0.141984 0.48992,0.520627 0.26551,0.863118 -0.0964,0.147201 -0.52958,0.516402 -0.96251,0.820447 -1.05872,0.743528 -1.04021,0.721783 -0.78094,0.917869 0.33595,0.254082 1.42493,0.236258 1.51335,-0.02477 z m 6.739186,0.04626 c 0,-0.259452 -0.614316,-1.089735 -1.037046,-1.401612 -1.01852,-0.751445 -2.49771,-0.689846 -3.47258,0.14461 -0.38692,0.331191 -0.9192,1.113233 -0.9192,1.350526 0,0.0343 1.22149,0.06236 2.71441,0.06236 2.20129,0 2.714416,-0.02947 2.714416,-0.155879 z"
         style="fill:#96031a;fill-opacity:1;stroke:none;stroke-width:0.0631923;stroke-miterlimit:4;stroke-dasharray:none;stroke-opacity:1" />
      <g
         style="font-size:25.4px;line-height:1.25;font-family:Montserrat;-inkscape-font-specification:Montserrat;fill:#fffff0;fill-opacity:1;stroke-width:0.0700042"
         id="text887"
         aria-label="lunchtime">
        <path
           id="path891"
           style="font-style:normal;font-variant:normal;font-weight:bold;font-stretch:normal;font-family:Montserrat;-inkscape-font-specification:'Montserrat Bold';fill:#fffff0;fill-opacity:1"
           d="m 151.47007,103.52798 h 3.9624 v 18.8468 h -3.9624 z" />
        <path
           id="path893"
           style="font-style:normal;font-variant:normal;font-weight:bold;font-stretch:normal;font-family:Montserrat;-inkscape-font-specification:'Montserrat Bold';fill:#fffff0;fill-opacity:1"
           d="m 172.87671,108.70958 v 13.6652 h -3.7592 v -1.6256 q -0.7874,0.889 -1.8796,1.3716 -1.0922,0.4572 -2.3622,0.4572 -2.6924,0 -4.2672,-1.5494 -1.5748,-1.5494 -1.5748,-4.5974 v -7.7216 h 3.9624 v 7.1374 q 0,3.302 2.7686,3.302 1.4224,0 2.286,-0.9144 0.8636,-0.9398 0.8636,-2.7686 v -6.7564 z" />
        <path
           id="path895"
           style="font-style:normal;font-variant:normal;font-weight:bold;font-stretch:normal;font-family:Montserrat;-inkscape-font-specification:'Montserrat Bold';fill:#fffff0;fill-opacity:1"
           d="m 184.87821,108.50638 q 2.54,0 4.0894,1.524 1.5748,1.524 1.5748,4.5212 v 7.8232 h -3.9624 v -7.2136 q 0,-1.6256 -0.7112,-2.413 -0.7112,-0.8128 -2.0574,-0.8128 -1.4986,0 -2.3876,0.9398 -0.889,0.9144 -0.889,2.7432 v 6.7564 h -3.9624 v -13.6652 h 3.7846 v 1.6002 q 0.7874,-0.8636 1.9558,-1.3208 1.1684,-0.4826 2.5654,-0.4826 z" />
        <path
           id="path897"
           style="font-style:normal;font-variant:normal;font-weight:bold;font-stretch:normal;font-family:Montserrat;-inkscape-font-specification:'Montserrat Bold';fill:#fffff0;fill-opacity:1"
           d="m 200.88695,122.57798 q -2.1844,0 -3.937,-0.889 -1.7272,-0.9144 -2.7178,-2.5146 -0.9652,-1.6002 -0.9652,-3.6322 0,-2.032 0.9652,-3.6322 0.9906,-1.6002 2.7178,-2.4892 1.7526,-0.9144 3.937,-0.9144 2.159,0 3.7592,0.9144 1.6256,0.889 2.3622,2.5654 l -3.0734,1.651 q -1.0668,-1.8796 -3.0734,-1.8796 -1.5494,0 -2.5654,1.016 -1.016,1.016 -1.016,2.7686 0,1.7526 1.016,2.7686 1.016,1.016 2.5654,1.016 2.032,0 3.0734,-1.8796 l 3.0734,1.6764 q -0.7366,1.6256 -2.3622,2.54 -1.6002,0.9144 -3.7592,0.9144 z" />
        <path
           id="path899"
           style="font-style:normal;font-variant:normal;font-weight:bold;font-stretch:normal;font-family:Montserrat;-inkscape-font-specification:'Montserrat Bold';fill:#fffff0;fill-opacity:1"
           d="m 217.52118,108.50638 q 2.54,0 4.0894,1.524 1.5748,1.524 1.5748,4.5212 v 7.8232 h -3.9624 v -7.2136 q 0,-1.6256 -0.7112,-2.413 -0.7112,-0.8128 -2.0574,-0.8128 -1.4986,0 -2.3876,0.9398 -0.889,0.9144 -0.889,2.7432 v 6.7564 h -3.9624 v -18.8468 h 3.9624 v 6.604 q 0.7874,-0.7874 1.905,-1.1938 1.1176,-0.4318 2.4384,-0.4318 z" />
        <path
           id="path901"
           style="fill:#fffff0;fill-opacity:1;stroke-width:0.0700042"
           d="m 234.4987,121.56198 q -0.508,0.4572 -1.27,0.7112 -0.7366,0.2286 -1.5494,0.2286 -1.8796,0 -2.8956,-1.016 -1.016,-1.016 -1.016,-2.8702 v -8.0772 h -2.3876 v -1.524 h 2.3876 v -2.921 h 1.8034 v 2.921 h 4.064 v 1.524 h -4.064 v 7.9756 q 0,1.1938 0.5842,1.8288 0.6096,0.6096 1.7272,0.6096 0.5588,0 1.0668,-0.1778 0.5334,-0.1778 0.9144,-0.508 z" />
        <path
           id="path903"
           style="fill:#fffff0;fill-opacity:1;stroke-width:0.0700042"
           d="m 237.78164,109.01438 h 1.8034 v 13.3604 h -1.8034 z m 0.9144,-2.921 q -0.5588,0 -0.9398,-0.381 -0.381,-0.381 -0.381,-0.9144 0,-0.508 0.381,-0.889 0.381,-0.381 0.9398,-0.381 0.5588,0 0.9398,0.381 0.381,0.3556 0.381,0.8636 0,0.5588 -0.381,0.9398 -0.381,0.381 -0.9398,0.381 z" />
        <path
           id="path905"
           style="fill:#fffff0;fill-opacity:1;stroke-width:0.0700042"
           d="m 261.29014,108.91278 q 2.5146,0 3.937,1.4478 1.4478,1.4478 1.4478,4.2672 v 7.747 h -1.8034 v -7.5692 q 0,-2.0828 -1.016,-3.175 -0.9906,-1.0922 -2.8194,-1.0922 -2.0828,0 -3.2766,1.2954 -1.1938,1.27 -1.1938,3.5306 v 7.0104 h -1.8034 v -7.5692 q 0,-2.0828 -1.016,-3.175 -0.9906,-1.0922 -2.8448,-1.0922 -2.0574,0 -3.2766,1.2954 -1.1938,1.27 -1.1938,3.5306 v 7.0104 h -1.8034 v -13.3604 h 1.7272 v 2.4384 q 0.7112,-1.2192 1.9812,-1.8796 1.27,-0.6604 2.921,-0.6604 1.6764,0 2.8956,0.7112 1.2446,0.7112 1.8542,2.1082 0.7366,-1.3208 2.1082,-2.0574 1.397,-0.762 3.175,-0.762 z" />
        <path
           id="path907"
           style="fill:#fffff0;fill-opacity:1;stroke-width:0.0700042"
           d="m 283.24844,116.25338 h -11.176 q 0.1524,2.0828 1.6002,3.3782 1.4478,1.27 3.6576,1.27 1.2446,0 2.286,-0.4318 1.0414,-0.4572 1.8034,-1.3208 l 1.016,1.1684 q -0.889,1.0668 -2.2352,1.6256 -1.3208,0.5588 -2.921,0.5588 -2.0574,0 -3.6576,-0.8636 -1.5748,-0.889 -2.4638,-2.4384 -0.889,-1.5494 -0.889,-3.5052 0,-1.9558 0.8382,-3.5052 0.8636,-1.5494 2.3368,-2.413 1.4986,-0.8636 3.3528,-0.8636 1.8542,0 3.3274,0.8636 1.4732,0.8636 2.3114,2.413 0.8382,1.524 0.8382,3.5052 z m -6.4516,-5.7912 q -1.9304,0 -3.2512,1.2446 -1.2954,1.2192 -1.4732,3.2004 h 9.4742 q -0.1778,-1.9812 -1.4986,-3.2004 -1.2954,-1.2446 -3.2512,-1.2446 z" />
      </g>
    </g>
    <g
       style="font-size:25.4px;line-height:1.25;font-family:Montserrat;-inkscape-font-specification:Montserrat;letter-spacing:2.91042px;fill:#96031a;fill-opacity:1;stroke-width:0.264583"
       id="text850"
       aria-label="time">
      <path
         id="path876"
         style="fill:#96031a;fill-opacity:1;stroke-width:0.264583"
         d="m 62.845039,132.80178 q -0.508,0.4572 -1.27,0.7112 -0.7366,0.2286 -1.5494,0.2286 -1.879599,0 -2.895599,-1.016 -1.016,-1.016 -1.016,-2.8702 v -8.0772 h -2.3876 v -1.524 h 2.3876 v -2.921 h 1.8034 v 2.921 h 4.063999 v 1.524 H 57.91744 v 7.9756 q 0,1.1938 0.5842,1.8288 0.6096,0.6096 1.727199,0.6096 0.5588,0 1.0668,-0.1778 0.5334,-0.1778 0.9144,-0.508 z" />
      <path
         id="path878"
         style="fill:#96031a;fill-opacity:1;stroke-width:0.264583"
         d="m 69.038409,120.25418 h 1.8034 v 13.3604 h -1.8034 z m 0.9144,-2.921 q -0.5588,0 -0.9398,-0.381 -0.381,-0.381 -0.381,-0.9144 0,-0.508 0.381,-0.889 0.381,-0.381 0.9398,-0.381 0.5588,0 0.9398,0.381 0.381,0.3556 0.381,0.8636 0,0.5588 -0.381,0.9398 -0.381,0.381 -0.9398,0.381 z" />
      <path
         id="path880"
         style="fill:#96031a;fill-opacity:1;stroke-width:0.264583"
         d="m 95.457323,120.15258 q 2.5146,0 3.937,1.4478 1.447797,1.4478 1.447797,4.2672 v 7.747 h -1.803397 v -7.5692 q 0,-2.0828 -1.016,-3.175 -0.9906,-1.0922 -2.8194,-1.0922 -2.0828,0 -3.2766,1.2954 -1.1938,1.27 -1.1938,3.5306 v 7.0104 h -1.8034 v -7.5692 q 0,-2.0828 -1.016,-3.175 -0.9906,-1.0922 -2.8448,-1.0922 -2.0574,0 -3.2766,1.2954 -1.1938,1.27 -1.1938,3.5306 v 7.0104 h -1.8034 v -13.3604 h 1.7272 v 2.4384 q 0.7112,-1.2192 1.9812,-1.8796 1.27,-0.6604 2.921,-0.6604 1.6764,0 2.8956,0.7112 1.2446,0.7112 1.8542,2.1082 0.7366,-1.3208 2.1082,-2.0574 1.397,-0.762 3.175,-0.762 z" />
      <path
         id="path882"
         style="fill:#96031a;fill-opacity:1;stroke-width:0.264583"
         d="m 120.32604,127.49318 h -11.176 q 0.1524,2.0828 1.6002,3.3782 1.4478,1.27 3.6576,1.27 1.2446,0 2.286,-0.4318 1.0414,-0.4572 1.8034,-1.3208 l 1.016,1.1684 q -0.889,1.0668 -2.2352,1.6256 -1.3208,0.5588 -2.921,0.5588 -2.0574,0 -3.6576,-0.8636 -1.5748,-0.889 -2.4638,-2.4384 -0.889,-1.5494 -0.889,-3.5052 0,-1.9558 0.8382,-3.5052 0.8636,-1.5494 2.3368,-2.413 1.4986,-0.8636 3.3528,-0.8636 1.8542,0 3.3274,0.8636 1.4732,0.8636 2.3114,2.413 0.8382,1.524 0.8382,3.5052 z m -6.4516,-5.7912 q -1.9304,0 -3.2512,1.2446 -1.2954,1.2192 -1.4732,3.2004 h 9.4742 q -0.1778,-1.9812 -1.4986,-3.2004 -1.2954,-1.2446 -3.2512,-1.2446 z" />
    </g>
  </g>
</svg>
